<?xml version="1.0" encoding="utf-8"?>
<!-- Generator: Adobe Illustrator 21.0.0, SVG Export Plug-In . SVG Version: 6.00 Build 0)  -->
<svg version="1.1" id="Layer_1" xmlns="http://www.w3.org/2000/svg" xmlns:xlink="http://www.w3.org/1999/xlink" x="0px" y="0px"
	 viewBox="0 0 24 24" style="enable-background:new 0 0 24 24;" xml:space="preserve">
<style type="text/css">
	.st0{fill:#BCBEC0;}
	.st1{fill:#FFFFFF;}
</style>
<g>
	<path class="st0" d="M19.7,18c2.2-1.6,3.7-4,3.7-6.6c0.1-5.1-5-9.3-11.4-9.4C5.8,1.9,0.5,5.8,0.4,11c-0.1,5.1,5,9.3,11.4,9.4
		c1.6,0,3.1-0.2,4.5-0.6c1.2,1.5,4.3,2.2,4.3,2.2S19.2,20,19.7,18z"/>
	<path class="st1" d="M18.2,11.5c0,0.8-0.7,1.5-1.4,1.5c-0.8,0-1.5-0.7-1.5-1.5c0-0.8,0.7-1.4,1.5-1.4
		C17.5,10.1,18.2,10.7,18.2,11.5z M12.3,10.1c-0.8,0-1.4,0.7-1.4,1.4c0,0.8,0.7,1.5,1.4,1.5c0.8,0,1.5-0.7,1.5-1.5
		C13.7,10.7,13.1,10.1,12.3,10.1z M7.6,10.1c-0.8,0-1.5,0.7-1.5,1.4c0,0.8,0.7,1.5,1.5,1.5s1.5-0.7,1.5-1.5
		C9.1,10.7,8.4,10.1,7.6,10.1z"/>
</g>
</svg>
