<?xml version="1.0" encoding="utf-8"?>
<!-- Generator: Adobe Illustrator 21.0.0, SVG Export Plug-In . SVG Version: 6.00 Build 0)  -->
<svg version="1.1" id="Layer_1" xmlns="http://www.w3.org/2000/svg" xmlns:xlink="http://www.w3.org/1999/xlink" x="0px" y="0px"
	 viewBox="0 0 24 24" style="enable-background:new 0 0 24 24;" xml:space="preserve">
<style type="text/css">
	.st0{fill:#939598;}
	.st1{fill:#ED1C24;}
	.st2{fill:#F2F2F2;}
	.st3{fill:#BCBEC0;}
</style>
<g>
	<g>
		<path class="st0" d="M24,2.5v18h-5c0.1-1.1,0.4-3.4,3-4.6V7.1c-1.2-0.5-2.1-1.4-2.6-2.6H4.6C4.1,5.6,3.2,6.6,2,7.1v8.8
			c1.2,0.5,2.1,1.4,2.6,2.6H11v2H0v-18H24z"/>
	</g>
	<path class="st1" d="M17.7,10.3c-0.5-0.4-0.5-0.3-0.7-0.9c-0.1-0.3-0.3-0.4-0.6-0.4h0c-0.7,0-0.5,0-1.1-0.3
		c-0.1-0.1-0.2-0.1-0.4-0.1s-0.3,0-0.4,0.1C14.1,9,14.2,9,13.5,8.9h0c-0.3,0-0.5,0.2-0.6,0.4c-0.2,0.6-0.1,0.5-0.7,0.9
		c-0.2,0.1-0.3,0.3-0.3,0.5l0,0.2c0.2,0.6,0.2,0.5,0,1.1l0,0.2c0,0.2,0.1,0.4,0.3,0.5c0.5,0.4,0.5,0.3,0.7,0.9
		c0.1,0.3,0.3,0.4,0.6,0.4h0c0.7,0,0.5,0,1.1,0.3c0.1,0.1,0.2,0.1,0.4,0.1s0.3,0,0.4-0.1c0.5-0.4,0.4-0.3,1.1-0.3h0
		c0.3,0,0.5-0.2,0.6-0.4c0.2-0.6,0.1-0.5,0.7-0.9c0.2-0.1,0.3-0.3,0.3-0.5l0-0.2c-0.2-0.6-0.2-0.5,0-1.1l0-0.2
		C18,10.6,17.9,10.4,17.7,10.3z"/>
	<circle class="st2" cx="15" cy="11.5" r="1.5"/>
	<path class="st1" d="M16.1,15.5L16.1,15.5l0.9,0v7l-2-1.3l-2,1.3v-7h0.9c0.4,0.3,0.6,0.4,1.1,0.4C15.4,15.9,15.8,15.7,16.1,15.5z"
		/>
	<rect x="5" y="10.5" class="st3" width="5" height="1"/>
	<rect x="5" y="12.5" class="st3" width="5" height="1"/>
	<rect x="5" y="14.5" class="st3" width="3" height="1"/>
	<rect x="5" y="8.5" class="st3" width="5" height="1"/>
</g>
</svg>
