<?xml version="1.0" encoding="utf-8"?>
<!-- Generator: Adobe Illustrator 22.1.0, SVG Export Plug-In . SVG Version: 6.00 Build 0)  -->
<svg version="1.1" id="Layer_1" xmlns="http://www.w3.org/2000/svg" xmlns:xlink="http://www.w3.org/1999/xlink" x="0px" y="0px"
	 viewBox="0 0 24 24" style="enable-background:new 0 0 24 24;" xml:space="preserve">
<style type="text/css">
	.st0{fill:#BCBEC0;}
</style>
<g>
	<polygon class="st0" points="22.6,4.7 22.4,4.7 1.7,4.7 1.5,4.7 12,14.1 	"/>
	<path class="st0" d="M23.8,5.7l-7.5,6.6l7.4,6.4c0.1-0.2,0.2-0.4,0.2-0.7V6.2C23.9,6,23.8,5.8,23.8,5.7z"/>
	<path class="st0" d="M0.3,5.6C0.2,5.8,0.2,6,0.2,6.2V18c0,0.2,0.1,0.4,0.1,0.6l7.4-6.4L0.3,5.6z"/>
	<polygon class="st0" points="12,16 8.9,13.2 1.6,19.5 1.7,19.5 22.3,19.5 15.2,13.2 	"/>
</g>
</svg>
