<?xml version="1.0" encoding="utf-8"?>
<!-- Generator: Adobe Illustrator 22.1.0, SVG Export Plug-In . SVG Version: 6.00 Build 0)  -->
<svg version="1.1" id="Layer_1" xmlns="http://www.w3.org/2000/svg" xmlns:xlink="http://www.w3.org/1999/xlink" x="0px" y="0px"
	 viewBox="0 0 24 24" style="enable-background:new 0 0 24 24;" xml:space="preserve">
<style type="text/css">
	.st0{fill:#BCBEC0;}
</style>
<path class="st0" d="M20.9,17.2L20.8,17c-0.3-0.7-3.9-1.7-4.2-1.8h-0.2c-0.5,0.1-1,0.6-2.2,1.6c-1.3-0.6-3-2.2-3.9-3.1
	c-0.9-1-2-2.7-2.4-4c1.3-1.1,1.8-1.6,1.9-2.2c0-0.3-0.6-4-1.3-4.4l-0.2,0c-0.4-0.3-1-0.7-1.7-0.5c-0.2,0-0.3,0.1-0.5,0.2
	C5.6,3,4.5,3.8,4,4.9c-0.3,0.6-0.5,6.5,3.9,11.5c4.4,4.9,9.7,5.1,10.6,5l0,0h0.1c1.1-0.4,2-1.4,2.4-1.9
	C21.6,18.7,21.1,17.7,20.9,17.2z"/>
</svg>
