<?xml version="1.0" encoding="utf-8"?>
<!-- Generator: Adobe Illustrator 21.0.0, SVG Export Plug-In . SVG Version: 6.00 Build 0)  -->
<svg version="1.1" id="Layer_1" xmlns="http://www.w3.org/2000/svg" xmlns:xlink="http://www.w3.org/1999/xlink" x="0px" y="0px"
	 viewBox="0 0 24 24" style="enable-background:new 0 0 24 24;" xml:space="preserve">
<style type="text/css">
	.st0{fill:#939598;}
</style>
<path class="st0" d="M12.3,0.4c-4.1,0-9.8,1-9.8,4.3v14.9c0,3.3,6.1,4.3,9.8,4.3c3.7,0,9.7-1,9.7-4.3V4.6
	C22.1,1.3,16.3,0.4,12.3,0.4z M12.3,2.3c3.5,0,7.8,0.9,7.8,2.3c0,1.5-5,2.3-7.8,2.3C9,6.9,4.5,6,4.5,4.6C4.5,3.1,9.2,2.3,12.3,2.3z
	 M20.1,19.2c0,1.7-5,2.5-7.8,2.5c-3.3,0-7.8-1-7.8-2.5v-2c2.1,1.3,5,1.7,7.8,1.7c2.8,0,5.7-0.4,7.8-1.7V19.2z M20.1,14.5
	c0,1.7-5,2.5-7.8,2.5c-3.3,0-7.8-1-7.8-2.5v-2.3c2.1,1.3,5,1.7,7.8,1.7c2.8,0,5.7-0.4,7.8-1.7V14.5z M12.3,12C9,12,4.5,11,4.5,9.4
	V7.1c2.1,1.3,5,1.7,7.8,1.7c2.8,0,5.7-0.4,7.8-1.7v2.3C20.1,11.1,15.1,12,12.3,12z"/>
</svg>
