<?xml version="1.0" encoding="utf-8"?>
<!-- Generator: Adobe Illustrator 21.0.0, SVG Export Plug-In . SVG Version: 6.00 Build 0)  -->
<svg version="1.1" id="Layer_1" xmlns="http://www.w3.org/2000/svg" xmlns:xlink="http://www.w3.org/1999/xlink" x="0px" y="0px"
	 viewBox="0 0 24 24" style="enable-background:new 0 0 24 24;" xml:space="preserve">
<style type="text/css">
	.st0{clip-path:url(#SVGID_1_);fill:#BCBEC0;}
	.st1{fill:#FFFFFF;}
	.st2{clip-path:url(#SVGID_2_);fill:#ED1C24;}
	.st3{clip-path:url(#SVGID_3_);fill:#939598;}
</style>
<g>
	<g>
		<defs>
			<rect id="SVGID_7_" y="2.2" width="24" height="19.3"/>
		</defs>
		<clipPath id="SVGID_1_">
			<use xlink:href="#SVGID_7_"  style="overflow:visible;"/>
		</clipPath>
		<path class="st0" d="M6.2,20.9c0,0.4-0.3,0.7-0.6,0.7H0.6c-0.3,0-0.6-0.3-0.6-0.7V3.6c0-0.4,0.3-0.7,0.6-0.7h5.1
			c0.3,0,0.6,0.3,0.6,0.7V20.9z"/>
	</g>
	<rect x="0.8" y="5.1" class="st1" width="4.6" height="0.7"/>
	<rect x="0.8" y="6.7" class="st1" width="4.6" height="0.7"/>
	<rect x="0.8" y="19.4" class="st1" width="4.6" height="0.7"/>
	<g>
		<defs>
			<rect id="SVGID_9_" y="2.2" width="24" height="19.3"/>
		</defs>
		<clipPath id="SVGID_2_">
			<use xlink:href="#SVGID_9_"  style="overflow:visible;"/>
		</clipPath>
		<path class="st2" d="M13.3,20.9c0,0.4-0.3,0.7-0.6,0.7H7.7c-0.3,0-0.6-0.3-0.6-0.7V3.6c0-0.4,0.3-0.7,0.6-0.7h5.1
			c0.3,0,0.6,0.3,0.6,0.7V20.9z"/>
	</g>
	<rect x="7.9" y="5.1" class="st1" width="4.6" height="0.7"/>
	<rect x="7.9" y="6.7" class="st1" width="4.6" height="0.7"/>
	<rect x="7.9" y="19.4" class="st1" width="4.6" height="0.7"/>
	<g>
		<defs>
			<rect id="SVGID_11_" y="2.2" width="24" height="19.3"/>
		</defs>
		<clipPath id="SVGID_3_">
			<use xlink:href="#SVGID_11_"  style="overflow:visible;"/>
		</clipPath>
		<path class="st3" d="M24,19.4c0.1,0.3-0.1,0.7-0.4,0.8l-4.9,1.3c-0.3,0.1-0.6-0.1-0.7-0.5L13.5,4.3c-0.1-0.3,0.1-0.7,0.4-0.8
			l4.9-1.3c0.3-0.1,0.6,0.1,0.7,0.5L24,19.4z"/>
	</g>
	<polygon class="st1" points="19.3,5 14.9,6.2 14.7,5.6 19.1,4.4 	"/>
	<rect x="15.1" y="6.5" transform="matrix(0.9659 -0.2591 0.2591 0.9659 -1.1804 4.7434)" class="st1" width="4.6" height="0.7"/>
	<rect x="18.4" y="18.8" transform="matrix(0.966 -0.2586 0.2586 0.966 -4.2448 6.0043)" class="st1" width="4.6" height="0.7"/>
</g>
</svg>
