<?xml version="1.0" encoding="utf-8"?>
<!-- Generator: Adobe Illustrator 21.0.0, SVG Export Plug-In . SVG Version: 6.00 Build 0)  -->
<svg version="1.1" id="Layer_1" xmlns="http://www.w3.org/2000/svg" xmlns:xlink="http://www.w3.org/1999/xlink" x="0px" y="0px"
	 viewBox="0 0 24 24" style="enable-background:new 0 0 24 24;" xml:space="preserve">
<style type="text/css">
	.st0{fill:#939598;}
</style>
<path class="st0" d="M12,5.2C9.1,3.4,4.6,2.6,0,2.5v17.7c3.9,0.1,7.8,0.7,10.7,2c0.8,0.4,1.8,0.4,2.7,0c2.9-1.3,6.7-1.9,10.7-2V2.5
	C19.4,2.6,14.9,3.4,12,5.2z M11,20.1c-1.5-0.5-4.7-1.5-9-1.8V4.6C7.2,5,9.5,6.1,11,6.9V20.1z M22,18.3c-4.3,0.3-7.5,1.3-9,1.8V6.9
	c0.9-0.5,2.1-1.1,4-1.6v6.1l1.5-1.5l1.5,1.5V4.8c0.6-0.1,1.3-0.1,2-0.2V18.3z"/>
</svg>
