<?xml version="1.0" encoding="utf-8"?>
<!-- Generator: Adobe Illustrator 21.0.0, SVG Export Plug-In . SVG Version: 6.00 Build 0)  -->
<svg version="1.1" id="Layer_1" xmlns="http://www.w3.org/2000/svg" xmlns:xlink="http://www.w3.org/1999/xlink" x="0px" y="0px"
	 viewBox="0 0 24 24" style="enable-background:new 0 0 24 24;" xml:space="preserve">
<style type="text/css">
	.st0{fill:#6D6E71;}
	.st1{fill:#BCBEC0;}
	.st2{fill:#EDEEF0;}
	.st3{fill:#FFFFFF;}
	.st4{opacity:0.5;fill:#FFFFFF;}
</style>
<g>
	<path class="st0" d="M20.5,19.3L15.2,1.6c-0.3-1-1.4-1.6-2.4-1.3L5.7,2.4c-1,0.3-1.6,1.4-1.3,2.4l5.2,17.6c0.3,1,1.4,1.6,2.4,1.3
		l7.1-2.1C20.2,21.3,20.8,20.3,20.5,19.3z M15.4,21.9c-0.4,0.1-0.9-0.1-1-0.6c-0.1-0.4,0.1-0.9,0.6-1c0.4-0.1,0.9,0.1,1,0.6
		C16.1,21.3,15.8,21.8,15.4,21.9z"/>
	<ellipse transform="matrix(0.9583 -0.2856 0.2856 0.9583 -5.4024 5.2059)" class="st1" cx="15.1" cy="21.1" rx="0.8" ry="0.8"/>
	<polygon class="st2" points="13.6,3.3 10.3,20.9 19.4,18.1 14.9,3 	"/>
	<path class="st3" d="M9.1,2.9L11,2.4c0.1,0,0.2,0,0.2,0.1c0,0.1,0,0.2-0.1,0.2L9.2,3.3C9.1,3.4,9,3.3,9,3.2C9,3.1,9,3,9.1,2.9z
		 M8.3,3.2c0.1,0,0.2,0,0.2,0.1c0,0.1,0,0.2-0.1,0.2c-0.1,0-0.2,0-0.2-0.1C8.2,3.3,8.2,3.2,8.3,3.2z"/>
	<ellipse transform="matrix(0.9587 -0.2845 0.2845 0.9587 -0.6115 2.5254)" class="st3" cx="8.4" cy="3.4" rx="0.2" ry="0.2"/>
	<path class="st3" d="M9.2,3.3l1.9-0.6c0.1,0,0.2-0.1,0.1-0.2c0-0.1-0.1-0.2-0.2-0.1L9.1,2.9C9,3,9,3.1,9,3.2C9,3.3,9.1,3.4,9.2,3.3
		z"/>
	<polygon class="st2" points="5.4,5.8 9.9,21 10.3,20.9 13.6,3.3 	"/>
	<polygon class="st4" points="5.4,5.8 9.9,21 10.3,20.9 13.6,3.3 	"/>
</g>
</svg>
