<?xml version="1.0" encoding="utf-8"?>
<!-- Generator: Adobe Illustrator 21.0.0, SVG Export Plug-In . SVG Version: 6.00 Build 0)  -->
<svg version="1.1" id="Layer_1" xmlns="http://www.w3.org/2000/svg" xmlns:xlink="http://www.w3.org/1999/xlink" x="0px" y="0px"
	 viewBox="0 0 24 24" style="enable-background:new 0 0 24 24;" xml:space="preserve">
<style type="text/css">
	.st0{fill:#939598;}
	.st1{fill:#BCBEC0;}
	.st2{fill:#ED1C24;}
</style>
<g>
	<g>
		<rect x="4.6" y="8.7" class="st0" width="14.9" height="6.5"/>
		<path class="st0" d="M12,12.2c4.1,0,7.4,1.3,7.4,3s-3.3,4-7.4,4s-7.4-2.3-7.4-4S7.9,12.2,12,12.2z"/>
	</g>
	<path class="st1" d="M11.6,2.8L0.4,7.8C0,8,0,8.5,0.4,8.7l11.2,4.9c0.3,0.1,0.6,0.1,0.9,0l11.2-4.9C24,8.5,24,8,23.6,7.8L12.5,2.8
		C12.2,2.7,11.9,2.7,11.6,2.8z"/>
	<g>
		<path class="st2" d="M21.6,8.9l-9.9-1.7c-0.2,0-0.5,0.1-0.6,0.4s0.1,0.5,0.4,0.6L21,9.8v7.3c0,0.3,0.2,0.5,0.5,0.5
			c0.3,0,0.5-0.2,0.5-0.5V9.4C22,9.1,21.8,8.9,21.6,8.9z"/>
		<circle class="st2" cx="21.5" cy="17.1" r="1"/>
		<path class="st2" d="M22.9,18.6c0,0.8-1.5,3-1.5,3s-1.5-2.1-1.5-3s0.6-1.5,1.5-1.5S22.9,17.8,22.9,18.6z"/>
	</g>
</g>
</svg>
