<?xml version="1.0" encoding="utf-8"?>
<!-- Generator: Adobe Illustrator 21.0.0, SVG Export Plug-In . SVG Version: 6.00 Build 0)  -->
<svg version="1.1" id="Layer_1" xmlns="http://www.w3.org/2000/svg" xmlns:xlink="http://www.w3.org/1999/xlink" x="0px" y="0px"
	 viewBox="0 0 24 24" style="enable-background:new 0 0 24 24;" xml:space="preserve">
<style type="text/css">
	.st0{fill:#BCBEC0;}
	.st1{fill:#ED1C24;}
</style>
<g>
	<path class="st0" d="M9.9,16.8c0-6.8,5.2-6.4,5.2-10.4c0-1-0.3-3-2.9-3c-2.9,0-3,2.3-3,2.9H5.3c0-1,0.4-6.1,7-6.1
		c6.7,0,6.8,5.2,6.8,6.2c0,5.1-5.5,5.8-5.5,10.6H9.9V16.8z"/>
	<path class="st1" d="M9.6,21.9c0-0.3,0-2.2,2.2-2.2c2,0,2.2,1.9,2.2,2.2c0,0.6-0.3,2-2.2,2S9.6,22.5,9.6,21.9z"/>
</g>
</svg>
