<?xml version="1.0" encoding="utf-8"?>
<!-- Generator: Adobe Illustrator 21.0.0, SVG Export Plug-In . SVG Version: 6.00 Build 0)  -->
<svg version="1.1" id="Layer_1" xmlns="http://www.w3.org/2000/svg" xmlns:xlink="http://www.w3.org/1999/xlink" x="0px" y="0px"
	 viewBox="0 0 24 24" style="enable-background:new 0 0 24 24;" xml:space="preserve">
<style type="text/css">
	.st0{fill:#BCBEC0;}
	.st1{fill:#939598;}
	.st2{fill:#6D6E71;}
</style>
<g>
	<g>
		<path class="st0" d="M16.1,8.4c0-0.2,0.1-0.4,0.1-0.6c0-0.2,0-0.4-0.1-0.6l1.2-0.8c0.1-0.1,0.2-0.2,0.1-0.4l-1.2-2
			c-0.1-0.1-0.2-0.2-0.3-0.1l-1.3,0.6c-0.3-0.2-0.6-0.4-1-0.6l-0.1-1.5c0-0.1-0.1-0.2-0.3-0.2h-2.3c-0.1,0-0.3,0.1-0.3,0.2l-0.1,1.5
			c-0.4,0.2-0.7,0.3-1,0.6L8.1,3.9C8,3.9,7.8,3.9,7.8,4L6.6,6c-0.1,0.1,0,0.3,0.1,0.4l1.2,0.8c0,0.2-0.1,0.4-0.1,0.6
			c0,0.2,0,0.4,0.1,0.6L6.6,9.2C6.5,9.3,6.5,9.4,6.6,9.6l1.1,2c0.1,0.1,0.2,0.2,0.3,0.1L9.4,11c0.3,0.2,0.6,0.4,1,0.6l0.1,1.5
			c0,0.1,0.1,0.2,0.3,0.2h2.3c0.1,0,0.3-0.1,0.3-0.2l0.1-1.5c0.4-0.2,0.7-0.3,1-0.6l1.3,0.6c0.1,0.1,0.3,0,0.3-0.1l1.1-2
			c0.1-0.1,0-0.3-0.1-0.4L16.1,8.4z M11.9,10.4c-1.5,0-2.6-1.2-2.6-2.6s1.2-2.6,2.6-2.6s2.6,1.2,2.6,2.6S13.4,10.4,11.9,10.4z"/>
		<path class="st1" d="M11.9,4.6c-1.7,0-3.2,1.4-3.2,3.2s1.4,3.2,3.2,3.2s3.2-1.4,3.2-3.2S13.7,4.6,11.9,4.6z M11.9,9.1
			c-0.7,0-1.3-0.6-1.3-1.3s0.6-1.3,1.3-1.3c0.7,0,1.3,0.6,1.3,1.3S12.7,9.1,11.9,9.1z"/>
	</g>
	<g>
		<path class="st1" d="M9.8,16c0-0.2,0-0.4-0.1-0.6S9.5,15,9.5,14.8l0.9-1.1c0.1-0.1,0.1-0.3,0-0.4l-1.6-1.6c-0.1-0.1-0.3-0.1-0.4,0
			l-1.1,0.9c-0.4-0.2-0.7-0.2-1.1-0.3L5.7,11c-0.1-0.1-0.2-0.2-0.3-0.2l-2.2,0.6c-0.1,0-0.2,0.2-0.2,0.3l0.2,1.4
			c-0.3,0.2-0.6,0.5-0.8,0.8l-1.4-0.3c-0.1,0-0.3,0.1-0.3,0.2L0,16.1c0,0.1,0,0.3,0.2,0.3l1.4,0.5c0,0.2,0,0.4,0.1,0.6
			c0.1,0.2,0.1,0.4,0.2,0.5l-1,1.1c-0.1,0.1-0.1,0.3,0,0.4l1.6,1.6c0.1,0.1,0.3,0.1,0.4,0L4,20.2c0.4,0.2,0.7,0.2,1.1,0.3l0.5,1.4
			c0.1,0.1,0.2,0.2,0.3,0.2l2.2-0.6c0.1,0,0.2-0.2,0.2-0.3L8,19.8c0.3-0.2,0.6-0.5,0.8-0.8l1.4,0.3c0.1,0,0.3-0.1,0.3-0.2l0.6-2.2
			c0-0.1,0-0.3-0.2-0.3L9.8,16z M6.3,19c-1.4,0.4-2.9-0.5-3.2-1.9s0.5-2.9,1.9-3.2c1.4-0.4,2.9,0.5,3.2,1.9
			C8.5,17.2,7.7,18.6,6.3,19z"/>
		<path class="st2" d="M4.8,13.4c-1.7,0.4-2.7,2.2-2.3,3.9C3,18.9,4.7,20,6.4,19.5s2.7-2.2,2.3-3.9S6.5,12.9,4.8,13.4z M5.9,17.7
			c-0.7,0.2-1.4-0.2-1.6-0.9c-0.2-0.7,0.2-1.4,0.9-1.6C6,15,6.7,15.4,6.9,16.1C7.1,16.8,6.7,17.5,5.9,17.7z"/>
	</g>
	<g>
		<path class="st0" d="M22.2,18c0.1-0.2,0.1-0.3,0.2-0.6c0.1-0.2,0.1-0.4,0.1-0.6l1.4-0.5c0.1-0.1,0.2-0.2,0.2-0.3l-0.6-2.2
			c0-0.1-0.2-0.2-0.3-0.2l-1.4,0.3c-0.2-0.3-0.5-0.6-0.8-0.8l0.2-1.4c0-0.1-0.1-0.3-0.2-0.3l-2.2-0.6c-0.1,0-0.3,0-0.3,0.2l-0.5,1.4
			c-0.4,0.1-0.8,0.2-1.1,0.3l-1.1-0.9c-0.1-0.1-0.3-0.1-0.4,0l-1.6,1.6c-0.1,0.1-0.1,0.3,0,0.4l0.9,1.1c-0.1,0.2-0.1,0.3-0.2,0.6
			s-0.1,0.4-0.1,0.6l-1.4,0.5c-0.1,0.1-0.2,0.2-0.2,0.3l0.6,2.2c0,0.1,0.2,0.2,0.3,0.2L15,19c0.2,0.3,0.5,0.6,0.8,0.8l-0.2,1.4
			c0,0.1,0.1,0.3,0.2,0.3l2.2,0.6c0.1,0,0.3,0,0.3-0.2l0.5-1.4c0.4-0.1,0.8-0.2,1.1-0.3l1.1,0.9c0.1,0.1,0.3,0.1,0.4,0l1.6-1.6
			c0.1-0.1,0.1-0.3,0-0.4L22.2,18z M17.7,19c-1.4-0.4-2.3-1.8-1.9-3.2c0.4-1.4,1.8-2.3,3.2-1.9c1.4,0.4,2.3,1.8,1.9,3.2
			C20.5,18.5,19.1,19.4,17.7,19z"/>
		<path class="st1" d="M19.1,13.4c-1.7-0.4-3.4,0.6-3.9,2.3s0.6,3.4,2.3,3.9c1.7,0.4,3.4-0.6,3.9-2.3C21.8,15.5,20.8,13.8,19.1,13.4
			z M18,17.7c-0.7-0.2-1.1-0.9-1-1.6c0.2-0.7,0.9-1.1,1.6-1s1.1,0.9,1,1.6S18.7,17.9,18,17.7z"/>
	</g>
</g>
</svg>
