<?xml version="1.0" encoding="utf-8"?>
<!-- Generator: Adobe Illustrator 21.0.0, SVG Export Plug-In . SVG Version: 6.00 Build 0)  -->
<svg version="1.1" id="Layer_1" xmlns="http://www.w3.org/2000/svg" xmlns:xlink="http://www.w3.org/1999/xlink" x="0px" y="0px"
	 viewBox="0 0 24 24" style="enable-background:new 0 0 24 24;" xml:space="preserve">
<style type="text/css">
	.st0{fill:#BCBEC0;}
	.st1{fill:#ED1C24;}
	.st2{fill:#6D6E71;}
	.st3{fill:#939598;}
</style>
<g>
	<path class="st0" d="M22,2.1V24H2.1V2.1h3c1.2,0,2.2-1.1,3-2h8c0.8,0.9,1.8,2,3,2H22z M11.1,3.1c0,0.6,0.4,1,1,1c0.6,0,1-0.4,1-1
		s-0.4-1-1-1C11.5,2.1,11.1,2.5,11.1,3.1z M20,4.1h-4l-2,2h-3.9l-2.1-2h-4V22H20V4.1z"/>
	<path class="st1" d="M5.5,10.6l0.6-0.5c0.7,0.3,1.1,0.6,1.8,1.1c1.4-1.6,2.3-2.4,4-3.5l0.2,0.4c-1.4,1.2-2.5,2.6-3.9,5.3
		C7.2,12.4,6.6,11.7,5.5,10.6z"/>
	<path class="st2" d="M5.6,17.3l0.6-0.5c0.7,0.3,1.1,0.6,1.8,1.1c1.4-1.6,2.3-2.4,4-3.5l0.2,0.4c-1.4,1.2-2.5,2.6-3.9,5.3
		C7.4,19,6.8,18.3,5.6,17.3z"/>
	<rect x="13.4" y="18.4" class="st3" width="5.1" height="1.3"/>
	<rect x="13.4" y="15.8" class="st3" width="5.1" height="1.3"/>
	<rect x="13.4" y="11.9" class="st3" width="5.1" height="1.3"/>
	<rect x="13.4" y="9.4" class="st3" width="5.1" height="1.3"/>
</g>
</svg>
