<?xml version="1.0" encoding="utf-8"?>
<!-- Generator: Adobe Illustrator 21.0.0, SVG Export Plug-In . SVG Version: 6.00 Build 0)  -->
<svg version="1.1" id="Layer_1" xmlns="http://www.w3.org/2000/svg" xmlns:xlink="http://www.w3.org/1999/xlink" x="0px" y="0px"
	 viewBox="0 0 24 24" style="enable-background:new 0 0 24 24;" xml:space="preserve">
<style type="text/css">
	.st0{fill:#939598;}
	.st1{fill:#ED1C24;}
	.st2{fill:#BCBEC0;}
</style>
<g>
	<path class="st0" d="M9.2,3.1h5.8c0.4,0,0.7,0.3,0.7,0.8v17c0,0.4-0.3,0.8-0.7,0.8H9.2c-0.4,0-0.7-0.3-0.7-0.8v-17
		C8.4,3.5,8.8,3.1,9.2,3.1"/>
	<path class="st1" d="M17.4,14.5h5.8c0.4,0,0.7,0.3,0.7,0.7V21c0,0.4-0.3,0.7-0.7,0.7h-5.8c-0.4,0-0.7-0.3-0.7-0.7v-5.8
		C16.7,14.8,17,14.5,17.4,14.5"/>
	<path class="st2" d="M0.9,9.3h5.8c0.4,0,0.7,0.4,0.7,0.9v10.5c0,0.5-0.3,0.9-0.7,0.9H0.9c-0.4,0-0.7-0.4-0.7-0.9V10.2
		C0.2,9.7,0.5,9.3,0.9,9.3"/>
</g>
</svg>
